<svg xmlns="http://www.w3.org/2000/svg" xmlns:xlink="http://www.w3.org/1999/xlink" width="1920" zoomAndPan="magnify" viewBox="0 0 1440 809.999993" height="1080" preserveAspectRatio="xMidYMid meet" version="1.0"><defs><clipPath id="a419ca092f"><path d="M 0 0 L 720 0 L 720 810 L 0 810 Z M 0 0 " clip-rule="nonzero"/></clipPath><clipPath id="4bc7d4fe67"><path d="M -17.890625 -51.21875 L 719.886719 -13.324219 L 674.953125 861.519531 L -62.824219 823.628906 Z M -17.890625 -51.21875 " clip-rule="nonzero"/></clipPath><clipPath id="a5b2a4f47d"><path d="M -17.890625 -51.21875 L 719.886719 -13.324219 L 674.953125 861.519531 L -62.824219 823.628906 Z M -17.890625 -51.21875 " clip-rule="nonzero"/></clipPath><clipPath id="dae895487b"><path d="M 590 0 L 1440 0 L 1440 564 L 590 564 Z M 590 0 " clip-rule="nonzero"/></clipPath><clipPath id="79203195d7"><path d="M 731.945312 698 L 590.011719 -54.480469 L 1481.785156 -222.6875 L 1623.722656 529.792969 Z M 731.945312 698 " clip-rule="nonzero"/></clipPath><clipPath id="c2025f89e4"><path d="M 731.945312 698 L 590.011719 -54.480469 L 1481.785156 -222.6875 L 1623.722656 529.792969 Z M 731.945312 698 " clip-rule="nonzero"/></clipPath></defs><rect x="-144" width="1728" fill="#ffffff" y="-80.999999" height="971.999992" fill-opacity="1"/><rect x="-144" width="1728" fill="#ffffff" y="-80.999999" height="971.999992" fill-opacity="1"/><rect x="-144" width="1728" fill="#ffffff" y="-80.999999" height="971.999992" fill-opacity="1"/><g clip-path="url(#a419ca092f)"><g clip-path="url(#4bc7d4fe67)"><g clip-path="url(#a5b2a4f47d)"><path fill="#ffde59" d="M 571.472656 122.871094 C 572.175781 119.261719 573.300781 115.757812 574.550781 112.304688 C 574.902344 111.523438 575.253906 110.738281 575.640625 109.96875 C 576.878906 107.316406 578.292969 104.761719 579.796875 102.253906 C 581.695312 99.554688 583.6875 96.914062 585.714844 94.3125 C 587.199219 92.5625 588.710938 90.828125 590.257812 89.128906 C 599.355469 79.605469 608.742188 70.351562 618.1875 61.175781 C 619.210938 60.183594 620.242188 59.199219 621.261719 58.207031 C 622.347656 57.207031 623.4375 56.195312 624.527344 55.1875 C 640.652344 40.296875 658.75 25.996094 665.683594 20.800781 C 672.660156 15.410156 686.289062 5.328125 699.574219 -2.433594 C 703.78125 -4.976562 708.0625 -7.40625 712.453125 -9.621094 C 714.894531 -10.75 717.238281 -12.214844 719.859375 -12.832031 C 717.996094 -13.011719 716.089844 -12.253906 714.265625 -11.894531 C 709.148438 -10.574219 704.542969 -9.125 699.664062 -7.113281 C 687.421875 -2.03125 675.976562 4.761719 664.746094 11.753906 C 644.148438 24.886719 624.613281 39.6875 606.0625 55.578125 C 594.578125 65.328125 583.183594 75.191406 572.207031 85.515625 C 572.285156 85.441406 572.363281 85.363281 572.441406 85.289062 C 572.253906 85.460938 572.078125 85.640625 571.898438 85.808594 C 571.484375 86.191406 571.078125 86.585938 570.660156 86.972656 C 570.589844 87.042969 570.511719 87.105469 570.445312 87.175781 C 558.363281 98.460938 546.804688 110.363281 536.269531 123.082031 C 523.6875 137.917969 512.433594 154.230469 506.230469 172.816406 C 505.269531 175.773438 504.464844 178.785156 503.882812 181.835938 C 503.746094 182.320312 503.683594 182.808594 503.648438 183.296875 C 503.25 185.546875 502.8125 187.796875 502.632812 190.066406 C 500.621094 210.140625 504.375 230.417969 510.507812 249.496094 C 514.734375 262.691406 520.511719 275.332031 527.042969 287.523438 C 537.746094 308.589844 550.804688 328.316406 563.382812 348.273438 C 574.964844 366.898438 586.074219 385.882812 595.230469 405.835938 C 599.355469 414.707031 602.425781 424.007812 605.464844 433.296875 C 609.210938 448.011719 609.136719 447.828125 609.917969 463.371094 C 610.070312 473.253906 609.558594 483.257812 606.898438 492.816406 C 606.863281 492.949219 606.820312 493.078125 606.785156 493.207031 C 603.417969 493.875 600.019531 494.347656 596.605469 494.65625 C 588.082031 495.300781 579.414062 495.195312 570.949219 494.023438 C 563.339844 492.691406 553.121094 489.90625 540.503906 484.65625 C 516.210938 474.417969 494.652344 458.609375 475.21875 440.96875 C 447.761719 417.136719 423.78125 389.59375 400.699219 361.585938 C 391.546875 350.136719 381.695312 339.273438 372.074219 328.195312 C 353.097656 306.488281 333.382812 285.390625 312.214844 265.792969 C 298.636719 254.511719 284.195312 244.261719 268.753906 235.714844 C 255.851562 228.699219 242.265625 223.050781 228.457031 218.101562 C 220.726562 215.453125 212.871094 213.023438 204.851562 211.441406 C 205.207031 211.527344 205.679688 211.65625 206.117188 211.773438 C 205.597656 211.632812 205.074219 211.511719 204.554688 211.390625 C 204.5 211.378906 204.453125 211.367188 204.394531 211.351562 C 204.414062 211.355469 204.453125 211.367188 204.480469 211.367188 C 193.679688 208.703125 182.527344 207.601562 171.421875 207.625 C 158.410156 207.691406 145.433594 209.644531 133.132812 213.960938 C 116.46875 220.058594 101.804688 230.636719 88.121094 241.75 C 67.660156 258.839844 48.554688 278.1875 35.199219 301.441406 C 28.691406 313 23.351562 325.402344 21.066406 338.535156 C 18.523438 352.484375 19.773438 366.683594 22.101562 380.5625 C 26.152344 403.863281 33.421875 426.484375 41.78125 448.5625 C 45.554688 458.179688 49.828125 467.609375 54.015625 477.050781 C 57.726562 487.136719 61.78125 497.089844 65.964844 506.992188 C 74.304688 526.710938 83.699219 545.96875 92.65625 565.417969 C 99.351562 579.964844 106.121094 594.515625 111.898438 609.449219 C 118.519531 628.335938 120.761719 637.5625 118.328125 657.371094 C 114.917969 679.929688 107.976562 697.929688 102.175781 709.074219 C 99.695312 713.921875 96.992188 718.65625 94.070312 723.253906 C 92.1875 725.996094 90.230469 728.695312 88.195312 731.324219 C 87.34375 732.316406 86.5 733.316406 85.628906 734.292969 C 85.539062 734.378906 85.453125 734.460938 85.371094 734.550781 C 84.363281 735.480469 83.355469 736.417969 82.320312 737.324219 C 80.636719 738.71875 78.9375 740.09375 77.21875 741.445312 C 76.953125 741.660156 76.679688 741.871094 76.40625 742.074219 C 75.042969 743.085938 73.691406 744.109375 72.320312 745.105469 C 43.980469 765.242188 3.597656 788 -42.101562 812.476562 C -48.996094 816.078125 -55.902344 819.644531 -62.835938 823.152344 C -38.230469 815.746094 -13.777344 807.492188 9.800781 796.894531 C 23.570312 790.855469 46.117188 779.027344 65.269531 765.9375 C 82.246094 754.359375 98.007812 741.042969 112.554688 726.53125 C 130.351562 708.492188 146.289062 688.476562 158.804688 666.40625 C 163.910156 657 168.019531 647.085938 171.921875 637.128906 C 178.347656 619.46875 183.5625 600.472656 180.964844 581.554688 C 179.453125 567 174.011719 553.339844 168.203125 540.035156 C 157.820312 515.535156 144.167969 492.667969 131.792969 469.167969 C 124.207031 454.71875 117.011719 440.0625 110.476562 425.101562 C 106.203125 412.96875 101.957031 400.800781 98.507812 388.390625 C 93.03125 368.296875 88.128906 345.605469 86.6875 332.386719 C 84.089844 312.027344 84.554688 291.761719 91.574219 272.332031 C 91.707031 272.320312 91.847656 272.308594 91.980469 272.292969 C 101.683594 271.550781 111.464844 272.191406 121.0625 273.703125 C 128.109375 274.601562 144.707031 279.507812 158.554688 286.4375 C 175.65625 294.441406 191.929688 304.203125 206.636719 316.070312 C 215.792969 323.429688 224.285156 331.554688 232.671875 339.769531 C 249.015625 354.085938 264.644531 369.214844 279.675781 384.90625 C 291.796875 397.554688 303.65625 410.433594 315.5625 423.277344 C 340.707031 448.355469 366.59375 472.898438 394.933594 494.410156 C 412.207031 507.445312 430.179688 519.714844 449.566406 529.425781 C 462.558594 535.785156 476.207031 540.785156 490.238281 544.316406 C 499.3125 546.636719 508.546875 548.261719 517.871094 549.203125 C 529.152344 550.761719 540.675781 551.371094 551.945312 549.320312 C 574.734375 545.441406 594.660156 532.703125 612.359375 518.394531 C 629.117188 504.449219 644.925781 488.992188 657.289062 470.941406 C 665.96875 458.578125 672.59375 444.761719 676.507812 430.160156 C 682.203125 406.53125 682.164062 381.621094 676.742188 357.953125 C 673.742188 347.582031 669.113281 337.75 664.3125 328.105469 C 657.847656 315.351562 650.828125 302.882812 643.394531 290.671875 C 633.773438 274.921875 623.765625 259.414062 613.75 243.902344 C 606.398438 232.445312 598.65625 221.199219 592.585938 208.984375 C 583.5625 190.847656 575.585938 171.941406 571.664062 151.984375 C 571.472656 150.777344 571.269531 149.570312 571.070312 148.363281 C 571.015625 147.898438 570.957031 147.433594 570.90625 146.96875 C 570.550781 144.179688 570.34375 141.363281 570.214844 138.546875 C 570.105469 135.421875 570.246094 132.300781 570.378906 129.175781 C 570.410156 129.09375 570.453125 129.011719 570.484375 128.917969 C 570.8125 126.976562 570.984375 124.890625 571.472656 122.871094 Z M 624.066406 55.53125 C 623.34375 56.21875 622.550781 56.972656 621.835938 57.660156 C 621.894531 57.605469 621.953125 57.554688 622.003906 57.5 C 620.121094 59.296875 618.230469 61.09375 616.351562 62.882812 C 618.925781 60.433594 621.5 57.980469 624.066406 55.53125 Z M 204.570312 211.429688 C 204.542969 211.417969 204.515625 211.417969 204.496094 211.40625 C 204.589844 211.421875 204.710938 211.445312 204.871094 211.480469 C 204.765625 211.464844 204.664062 211.441406 204.570312 211.429688 Z M 204.570312 211.429688 " fill-opacity="1" fill-rule="nonzero"/></g></g></g><g clip-path="url(#dae895487b)"><g clip-path="url(#79203195d7)"><g clip-path="url(#c2025f89e4)"><path fill="#ffde59" d="M 763.363281 61.796875 C 759.558594 61.96875 755.753906 61.695312 751.976562 61.277344 C 751.101562 61.113281 750.226562 60.949219 749.355469 60.746094 C 746.382812 60.148438 743.464844 59.347656 740.574219 58.445312 C 737.390625 57.1875 734.246094 55.828125 731.132812 54.421875 C 729.007812 53.351562 726.894531 52.253906 724.804688 51.109375 C 712.996094 44.265625 701.390625 37.070312 689.84375 29.789062 C 688.597656 29.003906 687.355469 28.207031 686.105469 27.417969 C 684.832031 26.566406 683.550781 25.71875 682.269531 24.867188 C 663.339844 12.253906 644.523438 -2.484375 637.601562 -8.203125 C 630.472656 -13.914062 616.996094 -25.1875 605.9375 -36.675781 C 602.347656 -40.292969 598.859375 -44.011719 595.554688 -47.894531 C 593.824219 -50.078125 591.777344 -52.082031 590.515625 -54.574219 C 590.789062 -52.652344 592.019531 -50.917969 592.824219 -49.164062 C 595.402344 -44.332031 597.988281 -40.046875 601.203125 -35.625 C 609.308594 -24.53125 618.941406 -14.65625 628.722656 -5.050781 C 646.972656 12.492188 666.644531 28.558594 687.167969 43.375 C 699.785156 52.5625 712.503906 61.636719 725.574219 70.175781 C 725.480469 70.113281 725.382812 70.050781 725.289062 69.988281 C 725.507812 70.136719 725.730469 70.273438 725.945312 70.414062 C 726.433594 70.738281 726.929688 71.050781 727.417969 71.375 C 727.507812 71.429688 727.585938 71.492188 727.675781 71.542969 C 741.984375 80.960938 756.789062 89.699219 772.167969 97.207031 C 790.179688 106.265625 809.347656 113.625 829.574219 115.335938 C 832.785156 115.582031 836.015625 115.660156 839.230469 115.5 C 839.75 115.519531 840.253906 115.464844 840.753906 115.378906 C 843.117188 115.230469 845.488281 115.121094 847.820312 114.75 C 868.523438 111.878906 888.019531 103.148438 905.730469 92.316406 C 917.984375 84.835938 929.304688 75.933594 939.984375 66.378906 C 958.582031 50.457031 975.253906 32.488281 992.277344 14.945312 C 1008.199219 -1.265625 1024.605469 -17.089844 1042.453125 -31.183594 C 1050.382812 -37.5 1058.996094 -42.867188 1067.605469 -48.191406 C 1081.503906 -55.558594 1081.339844 -55.4375 1096.796875 -60.019531 C 1106.710938 -62.582031 1116.90625 -64.507812 1127.183594 -64.164062 C 1127.320312 -64.160156 1127.464844 -64.144531 1127.601562 -64.144531 C 1129.09375 -60.910156 1130.402344 -57.605469 1131.542969 -54.238281 C 1134.273438 -45.8125 1136.285156 -37.054688 1137.171875 -28.242188 C 1137.6875 -20.25 1137.375 -9.277344 1135.171875 4.714844 C 1130.792969 31.6875 1120.140625 57.261719 1107.121094 81.144531 C 1089.832031 114.621094 1067.953125 145.5 1045.386719 175.585938 C 1036.09375 187.597656 1027.5625 200.171875 1018.757812 212.570312 C 1001.53125 236.984375 985.105469 261.992188 970.542969 288.097656 C 962.5 304.53125 955.703125 321.578125 950.863281 339.222656 C 946.953125 353.933594 944.585938 368.996094 942.972656 384.113281 C 942.191406 392.546875 941.660156 401.050781 942.027344 409.515625 C 942.027344 409.140625 942.039062 408.632812 942.050781 408.164062 C 942.035156 408.722656 942.042969 409.277344 942.046875 409.832031 C 942.046875 409.890625 942.046875 409.941406 942.046875 410 C 942.046875 409.980469 942.046875 409.941406 942.042969 409.910156 C 941.992188 421.441406 943.609375 432.945312 946.34375 444.128906 C 949.585938 457.21875 954.71875 469.816406 962.066406 481.152344 C 972.277344 496.453125 986.503906 508.644531 1001.035156 519.714844 C 1023.234375 536.15625 1047.378906 550.6875 1074.046875 558.464844 C 1087.277344 562.203125 1101.0625 564.554688 1114.84375 563.652344 C 1129.511719 562.808594 1143.503906 558.085938 1156.90625 552.351562 C 1179.375 542.585938 1200.378906 529.746094 1220.566406 515.933594 C 1229.328125 509.785156 1237.777344 503.183594 1246.261719 496.660156 C 1255.511719 490.460938 1264.542969 483.945312 1273.492188 477.3125 C 1291.308594 464.101562 1308.402344 449.941406 1325.800781 436.171875 C 1338.8125 425.878906 1351.808594 415.507812 1365.433594 406.039062 C 1382.832031 394.761719 1391.578125 390.253906 1412.113281 387.867188 C 1435.65625 385.800781 1455.472656 388.402344 1468.109375 391.527344 C 1473.597656 392.84375 1479.023438 394.410156 1484.367188 396.230469 C 1487.585938 397.457031 1490.777344 398.769531 1493.921875 400.183594 C 1495.128906 400.796875 1496.34375 401.402344 1497.539062 402.039062 C 1497.648438 402.109375 1497.753906 402.179688 1497.863281 402.238281 C 1499.042969 403.027344 1500.234375 403.8125 1501.402344 404.636719 C 1503.214844 405.992188 1505.011719 407.367188 1506.792969 408.769531 C 1507.074219 408.984375 1507.351562 409.207031 1507.625 409.4375 C 1508.976562 410.558594 1510.339844 411.671875 1511.675781 412.808594 C 1538.863281 436.449219 1571.636719 471.574219 1607.433594 511.640625 C 1612.742188 517.703125 1618.019531 523.792969 1623.242188 529.921875 C 1609.78125 506.941406 1595.5 484.320312 1579.078125 463.15625 C 1569.632812 450.757812 1552.222656 430.929688 1534.371094 414.828125 C 1518.570312 400.554688 1501.3125 387.921875 1483.152344 376.808594 C 1460.648438 363.28125 1436.601562 352.109375 1411.328125 344.890625 C 1400.609375 342.039062 1389.628906 340.320312 1378.648438 338.820312 C 1359.300781 336.65625 1338.902344 336.035156 1320.492188 343.269531 C 1306.207031 348.347656 1293.78125 357.160156 1281.804688 366.257812 C 1259.671875 382.695312 1239.980469 402.027344 1219.34375 420.230469 C 1206.644531 431.398438 1193.644531 442.222656 1180.175781 452.457031 C 1169.003906 459.722656 1157.789062 466.96875 1146.136719 473.472656 C 1127.246094 483.890625 1105.597656 494.367188 1092.636719 499.042969 C 1072.773438 506.628906 1052.257812 511.105469 1030.980469 508.777344 C 1030.9375 508.648438 1030.890625 508.507812 1030.84375 508.375 C 1027.726562 498.785156 1025.984375 488.773438 1025.164062 478.738281 C 1024.351562 471.417969 1025.238281 453.5 1028.835938 437.855469 C 1032.71875 418.675781 1038.574219 399.898438 1046.929688 382.1875 C 1052.105469 371.171875 1058.214844 360.628906 1064.4375 350.179688 C 1074.863281 330.222656 1086.277344 310.78125 1098.40625 291.816406 C 1108.183594 276.515625 1118.257812 261.425781 1128.28125 246.300781 C 1147.394531 214.851562 1165.785156 182.785156 1180.523438 148.984375 C 1189.429688 128.402344 1197.398438 107.300781 1202.445312 85.398438 C 1205.675781 70.757812 1207.378906 55.792969 1207.503906 40.792969 C 1207.628906 31.085938 1207.011719 21.390625 1205.679688 11.765625 C 1204.5 0.0234375 1202.300781 -11.738281 1197.484375 -22.589844 C 1188.015625 -44.597656 1170.328125 -61.5625 1151.597656 -75.902344 C 1133.46875 -89.382812 1114.050781 -101.535156 1092.855469 -109.585938 C 1078.292969 -115.3125 1062.765625 -118.617188 1047.105469 -118.996094 C 1021.925781 -118.96875 996.855469 -112.851562 974.347656 -101.609375 C 964.640625 -96.058594 955.871094 -88.996094 947.335938 -81.808594 C 936.074219 -72.183594 925.230469 -62.070312 914.753906 -51.601562 C 901.242188 -38.066406 888.070312 -24.199219 874.902344 -10.324219 C 865.15625 -0.121094 855.726562 10.417969 844.910156 19.515625 C 828.855469 33.03125 811.761719 45.683594 792.628906 54.5 C 791.460938 54.988281 790.292969 55.488281 789.128906 55.984375 C 788.671875 56.148438 788.21875 56.324219 787.765625 56.488281 C 785.042969 57.527344 782.253906 58.421875 779.453125 59.238281 C 776.332031 60.113281 773.15625 60.734375 769.980469 61.363281 C 769.886719 61.351562 769.796875 61.328125 769.695312 61.316406 C 767.65625 61.464844 765.519531 61.796875 763.363281 61.796875 Z M 682.726562 25.246094 C 683.597656 25.808594 684.546875 26.421875 685.414062 26.972656 C 685.347656 26.925781 685.277344 26.878906 685.210938 26.84375 C 687.480469 28.300781 689.753906 29.769531 692.011719 31.226562 C 688.917969 29.230469 685.820312 27.234375 682.726562 25.246094 Z M 942.082031 409.804688 C 942.078125 409.835938 942.082031 409.863281 942.078125 409.882812 C 942.066406 409.785156 942.0625 409.660156 942.0625 409.492188 C 942.070312 409.597656 942.074219 409.707031 942.082031 409.804688 Z M 942.082031 409.804688 " fill-opacity="1" fill-rule="nonzero"/></g></g></g></svg>